{
	"asset":{
		"generator":"Khronos glTF Blender I/O v3.6.27",
		"version":"2.0"
	},
	"scene":0,
	"scenes":[
		{
			"name":"Scene",
			"nodes":[
				0,
				1
			]
		}
	],
	"nodes":[
		{
			"mesh":0,
			"name":"DRT",
			"translation":[
				0.226662278175354,
				0.19421416521072388,
				0.007041725795716047
			]
		},
		{
			"mesh":1,
			"name":"Software",
			"translation":[
				0.012248754501342773,
				-0.31148719787597656,
				2.3342401618720032e-05
			]
		}
	],
	"materials":[
		{
			"doubleSided":true,
			"name":"Orange",
			"pbrMetallicRoughness":{
				"baseColorFactor":[
					0.8000000715255737,
					0.15919312834739685,
					0.02286394312977791,
					1
				],
				"metallicFactor":0,
				"roughnessFactor":0.5
			}
		}
	],
	"meshes":[
		{
			"name":"Mesh.001",
			"primitives":[
				{
					"attributes":{
						"POSITION":0,
						"NORMAL":1
					},
					"indices":2,
					"material":0
				}
			]
		},
		{
			"name":"Mesh.002",
			"primitives":[
				{
					"attributes":{
						"POSITION":3,
						"NORMAL":4
					},
					"indices":5,
					"material":0
				}
			]
		}
	],
	"accessors":[
		{
			"bufferView":0,
			"componentType":5126,
			"count":6152,
			"max":[
				0.9940791130065918,
				0.3429203927516937,
				0.10869193077087402
			],
			"min":[
				-1.3542559146881104,
				-0.31458142399787903,
				-0.10930819064378738
			],
			"type":"VEC3"
		},
		{
			"bufferView":1,
			"componentType":5126,
			"count":6152,
			"type":"VEC3"
		},
		{
			"bufferView":2,
			"componentType":5123,
			"count":16716,
			"type":"SCALAR"
		},
		{
			"bufferView":3,
			"componentType":5126,
			"count":14515,
			"max":[
				1.1495391130447388,
				0.1623343825340271,
				0.10897670686244965
			],
			"min":[
				-1.1037629842758179,
				-0.1564386487007141,
				-0.10902336239814758
			],
			"type":"VEC3"
		},
		{
			"bufferView":4,
			"componentType":5126,
			"count":14515,
			"type":"VEC3"
		},
		{
			"bufferView":5,
			"componentType":5123,
			"count":38676,
			"type":"SCALAR"
		}
	],
	"bufferViews":[
		{
			"buffer":0,
			"byteLength":73824,
			"byteOffset":0,
			"target":34962
		},
		{
			"buffer":0,
			"byteLength":73824,
			"byteOffset":73824,
			"target":34962
		},
		{
			"buffer":0,
			"byteLength":33432,
			"byteOffset":147648,
			"target":34963
		},
		{
			"buffer":0,
			"byteLength":174180,
			"byteOffset":181080,
			"target":34962
		},
		{
			"buffer":0,
			"byteLength":174180,
			"byteOffset":355260,
			"target":34962
		},
		{
			"buffer":0,
			"byteLength":77352,
			"byteOffset":529440,
			"target":34963
		}
	],
	"buffers":[
		{
			"byteLength":606792,
			"uri":"data:application/octet-stream;base64,"
		}
	]
}
