{
	"asset":{
		"generator":"Khronos glTF Blender I/O v3.6.27",
		"version":"2.0"
	},
	"scene":0,
	"scenes":[
		{
			"name":"Scene",
			"nodes":[
				0
			]
		}
	],
	"nodes":[
		{
			"mesh":0,
			"name":"Question",
			"rotation":[
				0.5,
				0.5,
				-0.5,
				0.5
			]
		}
	],
	"meshes":[
		{
			"name":"?",
			"primitives":[
				{
					"attributes":{
						"POSITION":0,
						"NORMAL":1,
						"TEXCOORD_0":2
					},
					"indices":3
				}
			]
		}
	],
	"accessors":[
		{
			"bufferView":0,
			"componentType":5126,
			"count":844,
			"max":[
				0.17481759190559387,
				0.029999999329447746,
				0
			],
			"min":[
				-0.18385952711105347,
				-0.029999999329447746,
				-0.5049437284469604
			],
			"type":"VEC3"
		},
		{
			"bufferView":1,
			"componentType":5126,
			"count":844,
			"type":"VEC3"
		},
		{
			"bufferView":2,
			"componentType":5126,
			"count":844,
			"type":"VEC2"
		},
		{
			"bufferView":3,
			"componentType":5123,
			"count":2496,
			"type":"SCALAR"
		}
	],
	"bufferViews":[
		{
			"buffer":0,
			"byteLength":10128,
			"byteOffset":0,
			"target":34962
		},
		{
			"buffer":0,
			"byteLength":10128,
			"byteOffset":10128,
			"target":34962
		},
		{
			"buffer":0,
			"byteLength":6752,
			"byteOffset":20256,
			"target":34962
		},
		{
			"buffer":0,
			"byteLength":4992,
			"byteOffset":27008,
			"target":34963
		}
	],
	"buffers":[
		{
			"byteLength":32000,
			"uri":"data:application/octet-stream;base64,"
		}
	]
}
